<svg xmlns="http://www.w3.org/2000/svg" viewBox="0 0 130 130"><linearGradient id="A" gradientUnits="userSpaceOnUse" x1="0" y1="65" x2="130" y2="65"><stop offset="0" stop-color="#a266f5"/><stop offset=".995" stop-color="#7416f1"/></linearGradient><path d="M65 130h0c-35.9 0-65-29.1-65-65h0C0 29.1 29.1 0 65 0h0c35.9 0 65 29.1 65 65h0c0 35.9-29.1 65-65 65z" fill="url(#A)"/><path d="M92.8 37.7H36.5c-1 0-1.9.6-2.4 1.4-.5.9-.4 2 .2 2.8l20.6 29c.7 1 1.2 2.2 1.2 3.5v23.7c0 .7.3 1.4.8 1.9s1.2.8 1.9.8c.4 0 .7-.1 1-.2l11.6-4.4c1-.3 1.7-1.3 1.7-2.5V74.5c0-1.3.4-2.5 1.2-3.5l20.6-29c.6-.8.7-1.9.2-2.8-.4-1-1.4-1.5-2.3-1.5h0zm0 0" fill="#fff"/></svg>
