<svg xmlns="http://www.w3.org/2000/svg" version="1.1" xmlns:xlink="http://www.w3.org/1999/xlink" xmlns:svgjs="http://svgjs.com/svgjs" width="512" height="512" x="0" y="0" viewBox="0 0 512 512" style="enable-background:new 0 0 512 512" xml:space="preserve" class=""><g><linearGradient id="SVGID_1_" gradientUnits="userSpaceOnUse" x1="85.78" x2="412.207" y1="387.998" y2="61.571"><stop stop-opacity="1" stop-color="#12d679" offset="0"></stop><stop stop-opacity="1" stop-color="#12d679" offset="1"></stop></linearGradient><path d="m416.965 138.965h-103.168c-1.707-24.234-21.956-43.433-46.617-43.433s-44.909 19.199-46.616 43.433h-125.529c-12.987 0-23.553 10.565-23.553 23.552v63.648c0 2.643.873 5.212 2.482 7.309l124.788 162.491v100.035c0 4.078 2.07 7.876 5.498 10.086 1.969 1.27 4.23 1.914 6.503 1.914 1.683 0 3.372-.354 4.952-1.07l90.494-41.011c4.291-1.944 7.047-6.219 7.047-10.93v-59.024l124.788-162.491c1.609-2.097 2.482-4.666 2.482-7.309v-63.648c.002-12.987-10.564-23.552-23.551-23.552zm-149.784-19.433c11.417 0 20.894 8.456 22.503 19.433h-45.005c1.609-10.978 11.085-19.433 22.502-19.433zm149.337 43.433v51.2h-321.036v-51.2zm-124.789 221.615c-1.609 2.096-2.482 4.665-2.482 7.309v55.364l-66.494 30.134v-85.498c0-2.644-.873-5.213-2.482-7.309l-112.442-146.415h296.343zm-124.758-264.378c25.776 0 46.746-20.97 46.746-46.747s-20.97-46.747-46.746-46.747-46.746 20.97-46.746 46.747 20.969 46.747 46.746 46.747zm0-69.494c12.542 0 22.746 10.204 22.746 22.747s-10.204 22.747-22.746 22.747-22.746-10.204-22.746-22.747 10.204-22.747 22.746-22.747zm168.333 46.785c25.776 0 46.746-20.97 46.746-46.747s-20.97-46.746-46.746-46.746-46.747 20.97-46.747 46.747 20.97 46.746 46.747 46.746zm0-69.493c12.542 0 22.746 10.204 22.746 22.747s-10.204 22.747-22.746 22.747c-12.543 0-22.747-10.204-22.747-22.747s10.204-22.747 22.747-22.747z" fill="url(#SVGID_1_)" data-original="url(#SVGID_1_)"></path></g></svg>