<svg xmlns="http://www.w3.org/2000/svg" version="1.1" xmlns:xlink="http://www.w3.org/1999/xlink" xmlns:svgjs="http://svgjs.com/svgjs" width="512" height="512" x="0" y="0" viewBox="0 0 24 24" style="enable-background:new 0 0 512 512" xml:space="preserve" class=""><g><linearGradient id="linear-gradient" gradientUnits="userSpaceOnUse" x1="4.728" x2="26.175" y1="11.933" y2="12.061"><stop stop-opacity="1" stop-color="#12d679" offset="0"></stop><stop stop-opacity="1" stop-color="#12d679" offset="1"></stop></linearGradient><path d="m22 0h-20a1 1 0 0 0 -.864 1.5l6.864 11.771v9.729a1 1 0 0 0 .416.811 1.058 1.058 0 0 0 .9.138l6-2a1 1 0 0 0 .684-.949v-7.729l6.864-11.771a1 1 0 0 0 -.864-1.5zm-7.864 12.5a1 1 0 0 0 -.136.5v7.279l-4 1.334v-8.613a1 1 0 0 0 -.136-.5l-6.123-10.5h16.518z" fill="url(#linear-gradient)" data-original="url(#linear-gradient)" class=""></path></g></svg>