<svg xmlns="http://www.w3.org/2000/svg" version="1.1" xmlns:xlink="http://www.w3.org/1999/xlink" xmlns:svgjs="http://svgjs.com/svgjs" width="512" height="512" x="0" y="0" viewBox="0 0 512 512.00048" style="enable-background:new 0 0 512 512" xml:space="preserve" class=""><g transform="matrix(0.9,0,0,0.9,25.600001144409106,25.60003662109375)"><path d="m474.667969 0h-437.335938c-33.191406 0-49.816406 40.089844-26.34375 63.535156l203.804688 203.589844 41.207031 20.605469 41.207031-20.605469 203.804688-203.589844c23.472656-23.445312 6.847656-63.535156-26.34375-63.535156zm0 0" fill="#12d679" data-original="#5c87bd" class=""></path><path d="m214.792969 267.125v229.410156c0 13.261719 15.636719 20.351563 25.628906 11.613282l44.472656-38.875c7.824219-6.835938 12.3125-16.71875 12.3125-27.105469v-175.042969zm0 0" fill="#12d679" data-original="#517aac" class=""></path><path d="m505.132812 15.75-4.097656 4.078125-216.605468 216.378906c-8.535157 8.523438-14.308594 19.292969-16.773438 30.917969h29.550781l203.804688-203.589844c14.039062-14.023437 13.730469-33.992187 4.121093-47.785156zm0 0" fill="#24b771" data-original="#456ea2" class=""></path><path d="m266.300781 279.933594v162.234375c0 1.46875-.636719 2.867187-1.746093 3.835937l-49.761719 43.5v7.027344c0 13.265625 15.636719 20.351562 25.628906 11.617188l44.472656-38.875c7.824219-6.839844 12.3125-16.71875 12.3125-27.105469v-175.042969h-29.546875c-.890625 4.179688-1.359375 8.472656-1.359375 12.808594zm0 0" fill="#24b771" data-original="#3f5f94" class=""></path></g></svg>