<svg xmlns="http://www.w3.org/2000/svg" version="1.1" xmlns:xlink="http://www.w3.org/1999/xlink" xmlns:svgjs="http://svgjs.com/svgjs" width="512" height="512" x="0" y="0" viewBox="0 0 512.00015 512" style="enable-background:new 0 0 512 512" xml:space="preserve" class=""><g transform="matrix(0.9000000000000001,0,0,0.9000000000000001,25.6000070571898,25.599999999999966)"><path d="m508.574219 26.957031c-6.878907-16.628906-22.339844-26.957031-40.34375-26.957031h-424.460938c-18.003906 0-33.464843 10.328125-40.34375 26.957031-6.875 16.605469-3.242187 34.816407 9.476563 47.519531l195.605468 195.425782v219.570312c0 8.933594 5.054688 16.777344 13.191407 20.472656 3.035156 1.378907 6.226562 2.054688 9.378906 2.054688 5.308594 0 10.515625-1.910156 14.738281-5.601562l43.164063-37.738282c9.222656-8.0625 14.511719-19.710937 14.511719-31.957031v-166.800781l195.609374-195.425782c12.714844-12.703124 16.347657-30.914062 9.472657-47.519531zm-20.074219 36.910157-195.609375 195.425781h-46.890625c-4.136719 0-7.496094 3.371093-7.496094 7.5 0 4.132812 3.359375 7.5 7.496094 7.5h42.496094v162.410156c0 7.921875-3.421875 15.453125-9.386719 20.667969l-43.164063 37.734375c-3.378906 2.953125-7.011718 1.652343-8.046874 1.183593-1.03125-.46875-4.390626-2.34375-4.390626-6.8125v-225.792968l-200.007812-199.820313c-9.972656-9.960937-9.75-22.632812-6.21875-31.171875 3.539062-8.550781 12.355469-17.691406 26.488281-17.691406h424.460938c14.132812 0 22.949219 9.140625 26.488281 17.691406 3.53125 8.539063 3.753906 21.210938-6.21875 31.175782zm0 0" fill="#12d679" data-original="#000000" class=""></path></g></svg>