<svg xmlns="http://www.w3.org/2000/svg" version="1.1" xmlns:xlink="http://www.w3.org/1999/xlink" xmlns:svgjs="http://svgjs.com/svgjs" width="512" height="512" x="0" y="0" viewBox="0 0 26 26" style="enable-background:new 0 0 512 512" xml:space="preserve" class=""><g><linearGradient id="paint0_linear_85_1033" gradientUnits="userSpaceOnUse" x1="13" x2="13" y1="1.354" y2="23.978"><stop stop-opacity="1" stop-color="#12d679" offset="0"></stop><stop stop-opacity="1" stop-color="#12d679" offset="1"></stop></linearGradient><path clip-rule="evenodd" d="m1.35449 4.33268c0-1.64534 1.33382-2.97916 2.97917-2.97916h17.33334c1.6454 0 2.9792 1.33382 2.9792 2.97916v.88564c0 1.029-.3905 2.01966-1.0926 2.77191l-6.1266 6.56417c-.2341.2508-.3642.581-.3642.9239v4.4349c0 .718-.4057 1.3745-1.048 1.6956l-4.3333 2.1667c-1.2605.6303-2.74367-.2863-2.74367-1.6957v-6.6015c0-.3429-.13017-.6731-.3642-.9239l-6.12655-6.56417c-.70211-.75225-1.09259-1.74291-1.09259-2.77191zm2.97917-1.35416c-.74789 0-1.35417.60627-1.35417 1.35416v.88564c0 .6174.23429 1.21179.65555 1.66315l6.12655 6.56423c.51491.5516.80121 1.2781.80121 2.0326v6.6015c0 .2013.2119.3323.392.2423l4.3333-2.1667c.0918-.0459.1497-.1396.1497-.2422v-4.4349c0-.7545.2864-1.481.8013-2.0326l6.1265-6.56423c.4212-.45136.6556-1.04575.6556-1.66315v-.88564c0-.74789-.6063-1.35416-1.3542-1.35416z" fill="url(#paint0_linear_85_1033)" fill-rule="evenodd" data-original="url(#paint0_linear_85_1033)" class=""></path></g></svg>