<?xml version="1.0" encoding="UTF-8" standalone="no"?>
<!-- Created with Inkscape (http://www.inkscape.org/) -->

<svg
   width="114.8435mm"
   height="25.49505mm"
   viewBox="0 0 114.84346 25.49505"
   version="1.1"
   id="svg5"
   inkscape:version="1.1.2 (b8e25be833, 2022-02-05)"
   sodipodi:docname="logo_fancy_cooked.svg"
   xmlns:inkscape="http://www.inkscape.org/namespaces/inkscape"
   xmlns:sodipodi="http://sodipodi.sourceforge.net/DTD/sodipodi-0.dtd"
   xmlns="http://www.w3.org/2000/svg"
   xmlns:svg="http://www.w3.org/2000/svg">
  <sodipodi:namedview
     id="namedview7"
     pagecolor="#000000"
     bordercolor="#eeeeee"
     borderopacity="1"
     inkscape:pageshadow="0"
     inkscape:pageopacity="1"
     inkscape:pagecheckerboard="false"
     inkscape:document-units="mm"
     showgrid="false"
     fit-margin-top="4"
     fit-margin-right="4"
     fit-margin-left="4"
     fit-margin-bottom="4"
     lock-margins="false"
     inkscape:zoom="4"
     inkscape:cx="191.875"
     inkscape:cy="68.625"
     inkscape:window-width="3200"
     inkscape:window-height="1721"
     inkscape:window-x="1911"
     inkscape:window-y="-789"
     inkscape:window-maximized="1"
     inkscape:current-layer="layer1"
     inkscape:snap-object-midpoints="false"
     inkscape:snap-bbox="true"
     inkscape:bbox-paths="true"
     inkscape:snap-bbox-edge-midpoints="true"
     showborder="true" />
  <defs
     id="defs2" />
  <g
     inkscape:label="Layer 1"
     inkscape:groupmode="layer"
     id="layer1"
     transform="translate(-205.38557,-51.249444)">
    <rect
       style="display:inline;fill:#0d1117;fill-opacity:1;stroke:#ffffff;stroke-width:0.126486;stroke-miterlimit:4;stroke-dasharray:none;stroke-opacity:0"
       id="rect2439-3-1"
       width="114.71703"
       height="25.368565"
       x="205.44881"
       y="51.312687"
       ry="0" />
    <g
       id="g8337-6-2"
       transform="matrix(0.42115868,0,0,0.42115868,250.4671,52.84369)"
       style="stroke-width:2.78178;stroke-miterlimit:4;stroke-dasharray:none">
      <linearGradient
         id="linearGradient42472"
         gradientUnits="userSpaceOnUse"
         x1="13"
         x2="13"
         y1="1.354"
         y2="23.978001"
         gradientTransform="matrix(6.2229291,0,0,6.2229291,-82.939909,-23.456746)">
        <stop
           stop-opacity="1"
           stop-color="#12d679"
           offset="0"
           id="stop8330-2-4" />
        <stop
           stop-opacity="1"
           stop-color="#12d679"
           offset="1"
           id="stop8332-4-4" />
      </linearGradient>
      <path
         clip-rule="evenodd"
         d="m 4.0825331,6.7588916 c 0,-1.64534 1.33382,-2.97916 2.97917,-2.97916 H 24.395043 c 1.6454,0 2.9792,1.33382 2.9792,2.97916 v 0.88564 c 0,1.029 -0.3905,2.01966 -1.0926,2.7719104 l -6.1266,6.56417 c -0.2341,0.2508 -0.3642,0.581 -0.3642,0.9239 v 4.434899 c 0,0.718 -0.4057,1.3745 -1.048,1.6956 l -4.3333,2.1667 c -1.2605,0.6303 -2.74367,-0.2863 -2.74367,-1.6957 v -6.601499 c 0,-0.3429 -0.13017,-0.6731 -0.3642,-0.9239 l -6.1265499,-6.56417 c -0.70211,-0.7522504 -1.09259,-1.7429104 -1.09259,-2.7719104 z"
         fill="url(#paint0_linear_85_1033)"
         fill-rule="evenodd"
         data-original="url(#paint0_linear_85_1033)"
         id="path8335-7-3"
         style="fill:#000000;fill-opacity:0;stroke:#12d679;stroke-width:3.20975;stroke-miterlimit:4;stroke-dasharray:none;stroke-opacity:1"
         sodipodi:nodetypes="sssssscssccssccss" />
    </g>
    <g
       id="g12582-9-7"
       transform="translate(167.27175,-47.248954)">
      <g
         aria-label="FunnelBot"
         id="text2254-85-3"
         style="font-size:10.5833px;line-height:1.25;stroke-width:0.264583">
        <path
           d="m 97.776489,110.15012 v -2.41299 h 3.323151 v -1.41816 h -3.323151 v -1.86266 h 3.566571 v -1.42875 h -3.746488 c -0.973663,0 -1.365245,0.51858 -1.365245,1.3335 v 5.78906 z"
           style="font-weight:600;font-family:Chillax;-inkscape-font-specification:'Chillax, Semi-Bold';fill:#12d679"
           id="path6326" />
        <path
           d="m 104.85671,108.83779 c -0.77258,0 -1.15358,-0.68791 -1.15358,-1.49224 v -2.43416 h -1.50282 v 2.60349 c 0,1.53458 0.91016,2.77283 2.6564,2.77283 1.75683,0 2.667,-1.23825 2.667,-2.77283 v -2.60349 h -1.50283 v 2.42358 c 0,0.81491 -0.39158,1.50282 -1.16417,1.50282 z"
           style="font-weight:600;font-family:Chillax;-inkscape-font-specification:'Chillax, Semi-Bold';fill:#12d679"
           id="path6328" />
        <path
           d="m 111.4501,106.22372 c 0.85725,0 1.24883,0.68791 1.24883,1.49224 v 2.43416 h 1.50283 v -2.61407 c 0,-1.53458 -0.92075,-2.77283 -2.75166,-2.77283 -1.83091,0 -2.73049,1.24883 -2.73049,2.77283 v 2.61407 h 1.50283 v -2.43416 c 0,-0.80433 0.381,-1.49224 1.22766,-1.49224 z"
           style="font-weight:600;font-family:Chillax;-inkscape-font-specification:'Chillax, Semi-Bold';fill:#12d679"
           id="path6330" />
        <path
           d="m 118.19166,106.22372 c 0.85724,0 1.24882,0.68791 1.24882,1.49224 v 2.43416 h 1.50283 v -2.61407 c 0,-1.53458 -0.92074,-2.77283 -2.75165,-2.77283 -1.83092,0 -2.7305,1.24883 -2.7305,2.77283 v 2.61407 h 1.50283 v -2.43416 c 0,-0.80433 0.381,-1.49224 1.22767,-1.49224 z"
           style="font-weight:600;font-family:Chillax;-inkscape-font-specification:'Chillax, Semi-Bold';fill:#12d679"
           id="path6332" />
        <path
           d="m 124.79562,110.28771 c 1.11125,0 1.97908,-0.53975 2.43416,-1.48167 l -1.15358,-0.58208 c -0.24341,0.48683 -0.71966,0.762 -1.29116,0.762 -0.75141,0 -1.29116,-0.46566 -1.39699,-1.16416 h 3.89465 v -0.4445 c 0,-1.42875 -0.96308,-2.65641 -2.62466,-2.65641 -1.61924,0 -2.71991,1.24883 -2.71991,2.76224 0,1.67216 1.22767,2.80458 2.85749,2.80458 z m -1.34407,-3.30199 c 0.10583,-0.52917 0.53974,-0.9525 1.19591,-0.9525 0.635,0 1.0795,0.41275 1.143,0.9525 z"
           style="font-weight:600;font-family:Chillax;-inkscape-font-specification:'Chillax, Semi-Bold';fill:#12d679"
           id="path6334" />
        <path
           d="m 128.59502,102.4984 v 7.65172 h 1.50283 v -7.65172 z"
           style="font-weight:600;font-family:Chillax;-inkscape-font-specification:'Chillax, Semi-Bold';fill:#12d679"
           id="path6336" />
        <path
           d="m 134.61693,110.15012 c 1.70391,0 2.94216,-0.59266 2.94216,-1.98966 0,-0.89958 -0.47625,-1.35466 -1.18533,-1.55574 0.67733,-0.254 1.11124,-0.80433 1.11124,-1.61925 0,-1.21708 -1.06891,-1.95791 -2.8469,-1.95791 h -2.75166 v 7.12256 z m -1.18533,-5.85256 h 1.29116 c 0.79375,0 1.21708,0.28575 1.21708,0.81491 0,0.58208 -0.381,0.87842 -1.22766,0.87842 h -1.28058 z m 0,2.96332 h 1.28058 c 0.86783,0 1.30174,0.1905 1.30174,0.79375 0,0.65616 -0.56091,0.8255 -1.31232,0.8255 h -1.27 z"
           style="font-weight:600;font-family:Chillax;-inkscape-font-specification:'Chillax, Semi-Bold';fill:#ffffff"
           id="path6338" />
        <path
           d="m 141.32675,110.28771 c 1.60866,0 2.84691,-1.24883 2.84691,-2.77283 0,-1.50283 -1.22766,-2.76224 -2.84691,-2.76224 -1.59808,0 -2.83632,1.24883 -2.83632,2.76224 0,1.524 1.22766,2.77283 2.83632,2.77283 z m 0,-1.40758 c -0.77258,0 -1.3335,-0.61383 -1.3335,-1.35466 0,-0.74084 0.56092,-1.35467 1.3335,-1.35467 0.77258,0 1.34408,0.61383 1.34408,1.35467 0,0.74083 -0.5715,1.35466 -1.34408,1.35466 z"
           style="font-weight:600;font-family:Chillax;-inkscape-font-specification:'Chillax, Semi-Bold';fill:#ffffff"
           id="path6340" />
        <path
           d="m 147.86724,110.29829 c 0.37042,0 0.8255,-0.0847 1.09008,-0.254 v -1.34408 c -0.254,0.15875 -0.64558,0.254 -0.9525,0.254 -0.55033,0 -0.89958,-0.33866 -0.89958,-0.92075 v -1.85207 h 1.85208 v -1.27 h -1.85208 v -1.3335 h -1.50283 v 1.3335 h -0.96308 v 1.27 h 0.96308 v 1.89441 c 0,1.31233 0.75142,2.22249 2.26483,2.22249 z"
           style="font-weight:600;font-family:Chillax;-inkscape-font-specification:'Chillax, Semi-Bold';fill:#ffffff"
           id="path6342" />
      </g>
      <g
         aria-label="Restless "
         id="text1244-5-9"
         style="font-size:10.5833px;line-height:1.25;font-family:Chillax;-inkscape-font-specification:'Chillax, Normal';fill:#ffffff;stroke-width:0.264583">
        <path
           d="m 43.637819,110.1969 0.01058,-2.27541 h 0.603248 c 0.804331,0 1.111246,0.34925 1.439329,1.00541 l 0.634998,1.27 h 1.672161 l -0.687915,-1.40758 c -0.370415,-0.74083 -0.634998,-1.22766 -1.090079,-1.48166 0.910163,-0.24342 1.481662,-0.99483 1.481662,-1.9685 0,-1.51341 -1.238247,-2.26482 -2.846908,-2.26482 H 42.11382 v 7.12256 z m 1.238247,-5.69382 c 0.698497,0 1.238246,0.29634 1.238246,0.99483 0,0.66675 -0.529165,1.04775 -1.259413,1.04775 h -1.206496 l 0.01058,-2.04258 z"
           style="font-weight:600;-inkscape-font-specification:'Chillax, Semi-Bold'"
           id="path6345" />
        <path
           d="m 51.194292,110.33448 c 1.111246,0 1.979077,-0.53975 2.434159,-1.48166 l -1.15358,-0.58208 c -0.243416,0.48683 -0.719664,0.762 -1.291163,0.762 -0.751414,0 -1.291162,-0.46567 -1.396995,-1.16417 h 3.894654 v -0.4445 c 0,-1.42874 -0.96308,-2.6564 -2.624658,-2.6564 -1.619245,0 -2.719908,1.24883 -2.719908,2.76224 0,1.67216 1.227663,2.80457 2.857491,2.80457 z m -1.344079,-3.30199 c 0.105833,-0.52916 0.539748,-0.95249 1.195913,-0.95249 0.634998,0 1.079496,0.41274 1.142996,0.95249 z"
           style="font-weight:600;-inkscape-font-specification:'Chillax, Semi-Bold'"
           id="path6347" />
        <path
           d="m 56.835186,110.34507 c 1.195913,0 2.222493,-0.67734 2.222493,-1.73567 0,-1.96849 -2.878658,-1.29116 -2.878658,-2.13782 0,-0.27517 0.275166,-0.45508 0.645582,-0.45508 0.423332,0 0.804331,0.17991 0.973663,0.56091 l 1.111247,-0.62441 c -0.317499,-0.60325 -0.99483,-1.13242 -2.11666,-1.13242 -1.291163,0 -2.11666,0.74083 -2.11666,1.68275 0,2.02141 2.878657,1.29116 2.878657,2.13782 0,0.30692 -0.306915,0.49742 -0.793747,0.49742 -0.529165,0 -0.878414,-0.17992 -1.100663,-0.60325 l -1.111247,0.62442 c 0.433916,0.78316 1.195913,1.18533 2.285993,1.18533 z"
           style="font-weight:600;-inkscape-font-specification:'Chillax, Semi-Bold'"
           id="path6349" />
        <path
           d="m 62.793594,110.34507 c 0.370415,0 0.825497,-0.0847 1.090079,-0.254 v -1.34408 c -0.253999,0.15875 -0.645581,0.254 -0.952497,0.254 -0.550331,0 -0.89958,-0.33867 -0.89958,-0.92075 v -1.85208 h 1.852077 v -1.26999 h -1.852077 v -1.3335 h -1.502829 v 1.3335 h -0.96308 v 1.26999 h 0.96308 v 1.89441 c 0,1.31233 0.751415,2.2225 2.264827,2.2225 z"
           style="font-weight:600;-inkscape-font-specification:'Chillax, Semi-Bold'"
           id="path6351" />
        <path
           d="m 65.174825,102.54517 v 7.65173 h 1.502829 v -7.65173 z"
           style="font-weight:600;-inkscape-font-specification:'Chillax, Semi-Bold'"
           id="path6353" />
        <path
           d="m 70.741647,110.33448 c 1.111246,0 1.979077,-0.53975 2.434159,-1.48166 l -1.15358,-0.58208 c -0.243416,0.48683 -0.719664,0.762 -1.291162,0.762 -0.751415,0 -1.291163,-0.46567 -1.396996,-1.16417 h 3.894654 v -0.4445 c 0,-1.42874 -0.96308,-2.6564 -2.624658,-2.6564 -1.619245,0 -2.719908,1.24883 -2.719908,2.76224 0,1.67216 1.227663,2.80457 2.857491,2.80457 z m -1.344079,-3.30199 c 0.105833,-0.52916 0.539748,-0.95249 1.195913,-0.95249 0.634998,0 1.079496,0.41274 1.142996,0.95249 z"
           style="font-weight:600;-inkscape-font-specification:'Chillax, Semi-Bold'"
           id="path6355" />
        <path
           d="m 76.382544,110.34507 c 1.195912,0 2.222493,-0.67734 2.222493,-1.73567 0,-1.96849 -2.878658,-1.29116 -2.878658,-2.13782 0,-0.27517 0.275166,-0.45508 0.645581,-0.45508 0.423332,0 0.804331,0.17991 0.973664,0.56091 L 78.45687,105.953 c -0.317499,-0.60325 -0.99483,-1.13242 -2.11666,-1.13242 -1.291162,0 -2.116659,0.74083 -2.116659,1.68275 0,2.02141 2.878657,1.29116 2.878657,2.13782 0,0.30692 -0.306916,0.49742 -0.793747,0.49742 -0.529165,0 -0.878414,-0.17992 -1.100664,-0.60325 l -1.111246,0.62442 c 0.433915,0.78316 1.195913,1.18533 2.285993,1.18533 z"
           style="font-weight:600;-inkscape-font-specification:'Chillax, Semi-Bold'"
           id="path6357" />
        <path
           d="m 81.695368,110.34507 c 1.195913,0 2.222493,-0.67734 2.222493,-1.73567 0,-1.96849 -2.878658,-1.29116 -2.878658,-2.13782 0,-0.27517 0.275166,-0.45508 0.645582,-0.45508 0.423332,0 0.80433,0.17991 0.973663,0.56091 l 1.111247,-0.62441 c -0.317499,-0.60325 -0.994831,-1.13242 -2.11666,-1.13242 -1.291163,0 -2.11666,0.74083 -2.11666,1.68275 0,2.02141 2.878657,1.29116 2.878657,2.13782 0,0.30692 -0.306915,0.49742 -0.793747,0.49742 -0.529165,0 -0.878414,-0.17992 -1.100663,-0.60325 l -1.111247,0.62442 c 0.433915,0.78316 1.195913,1.18533 2.285993,1.18533 z"
           style="font-weight:600;-inkscape-font-specification:'Chillax, Semi-Bold'"
           id="path6359" />
      </g>
    </g>
    <path
       style="fill:none;stroke:#12d679;stroke-width:0.25;stroke-linecap:butt;stroke-linejoin:miter;stroke-miterlimit:4;stroke-dasharray:none;stroke-opacity:1"
       d="m 209.38557,66.092519 h 106.8435"
       id="path1109-7-5-0" />
    <g
       aria-label="Message Aggregator For Social Networks"
       id="text1633-9-9-4-1"
       style="font-size:10.5833px;line-height:0.75;letter-spacing:0px;word-spacing:0.396875px;stroke-width:0.264583">
      <path
         d="m 210.14724,71.511533 0.47625,-3.100919 c 0.0212,-0.127 0.0741,-0.1905 0.15346,-0.1905 0.0794,0 0.11642,0.05292 0.14817,0.164042 l 0.78846,2.709335 c 0.0423,0.15875 0.1852,0.243416 0.33337,0.243416 0.15346,0 0.28575,-0.08467 0.33338,-0.248708 l 0.78316,-2.69346 c 0.0265,-0.105833 0.0794,-0.169333 0.15346,-0.169333 0.0953,0 0.127,0.07408 0.14288,0.1905 l 0.43391,3.090335 h 0.33867 l -0.46037,-3.185585 c -0.037,-0.259292 -0.22225,-0.396876 -0.43921,-0.396876 -0.20109,0 -0.381,0.105834 -0.4445,0.333376 l -0.75671,2.677585 c -0.0212,0.07937 -0.037,0.111125 -0.0847,0.111125 -0.0476,0 -0.0635,-0.03175 -0.0847,-0.111125 l -0.762,-2.688169 c -0.0635,-0.227542 -0.24341,-0.328083 -0.4392,-0.328083 -0.22225,0 -0.40746,0.132291 -0.4498,0.386292 l -0.508,3.206752 z"
         style="font-size:5.29167px;font-family:Chillax;-inkscape-font-specification:'Chillax, Normal';text-align:center;text-anchor:middle;fill:#c9d1d9"
         id="path6362" />
      <path
         d="m 216.12154,71.559158 c 0.47096,0 0.87312,-0.211667 1.10596,-0.635001 l -0.254,-0.137583 c -0.18521,0.328083 -0.50271,0.460375 -0.85196,0.460375 -0.54504,0 -0.94721,-0.386292 -1.00013,-0.910167 h 2.17488 V 70.14099 c 0,-0.73025 -0.48683,-1.264709 -1.23296,-1.264709 -0.75142,0 -1.26471,0.597959 -1.26471,1.338792 0,0.767293 0.56621,1.344085 1.32292,1.344085 z m -0.98954,-1.48696 c 0.0476,-0.497417 0.39687,-0.883709 0.93133,-0.883709 0.51858,0 0.89429,0.349251 0.90488,0.883709 z"
         style="font-size:5.29167px;font-family:Chillax;-inkscape-font-specification:'Chillax, Normal';text-align:center;text-anchor:middle;fill:#c9d1d9"
         id="path6364" />
      <path
         d="m 218.84675,71.553866 c 0.508,0 0.94721,-0.291042 0.94721,-0.756709 0,-0.973667 -1.524,-0.545042 -1.524,-1.169459 0,-0.264583 0.27517,-0.418042 0.56092,-0.418042 0.26987,0 0.49212,0.07408 0.62971,0.333375 l 0.26987,-0.153458 c -0.16933,-0.306917 -0.48683,-0.486834 -0.90487,-0.486834 -0.49213,0 -0.88371,0.301625 -0.88371,0.730251 0,0.973667 1.524,0.523875 1.524,1.169459 0,0.296333 -0.28575,0.4445 -0.62971,0.4445 -0.31221,0 -0.55033,-0.105833 -0.70379,-0.402167 l -0.26988,0.148167 c 0.1905,0.375708 0.55034,0.560917 0.98425,0.560917 z"
         style="font-size:5.29167px;font-family:Chillax;-inkscape-font-specification:'Chillax, Normal';text-align:center;text-anchor:middle;fill:#c9d1d9"
         id="path6366" />
      <path
         d="m 221.37088,71.553866 c 0.508,0 0.9472,-0.291042 0.9472,-0.756709 0,-0.973667 -1.524,-0.545042 -1.524,-1.169459 0,-0.264583 0.27517,-0.418042 0.56092,-0.418042 0.26988,0 0.49213,0.07408 0.62971,0.333375 l 0.26987,-0.153458 c -0.16933,-0.306917 -0.48683,-0.486834 -0.90487,-0.486834 -0.49213,0 -0.88371,0.301625 -0.88371,0.730251 0,0.973667 1.524,0.523875 1.524,1.169459 0,0.296333 -0.28575,0.4445 -0.62971,0.4445 -0.31221,0 -0.55033,-0.105833 -0.70379,-0.402167 l -0.26987,0.148167 c 0.1905,0.375708 0.55033,0.560917 0.98425,0.560917 z"
         style="font-size:5.29167px;font-family:Chillax;-inkscape-font-specification:'Chillax, Normal';text-align:center;text-anchor:middle;fill:#c9d1d9"
         id="path6368" />
      <path
         d="m 224.15429,71.559158 c 0.48683,0 0.88371,-0.264584 1.0795,-0.650876 v 0.597959 h 0.31221 v -1.291168 c 0,-0.751417 -0.59267,-1.3335 -1.34938,-1.3335 -0.76729,0 -1.34408,0.60325 -1.34408,1.3335 0,0.740834 0.56092,1.344085 1.30175,1.344085 z m 0.0423,-0.312209 c -0.5662,0 -1.016,-0.465667 -1.016,-1.026584 0,-0.560917 0.4498,-1.026584 1.016,-1.026584 0.5715,0 1.0213,0.465667 1.0213,1.026584 0,0.560917 -0.4498,1.026584 -1.0213,1.026584 z"
         style="font-size:5.29167px;font-family:Chillax;-inkscape-font-specification:'Chillax, Normal';text-align:center;text-anchor:middle;fill:#c9d1d9"
         id="path6370" />
      <path
         d="m 227.5198,72.744492 c 0.80433,0 1.38112,-0.571501 1.38112,-1.449918 v -1.079501 c 0,-0.751417 -0.59266,-1.3335 -1.34937,-1.3335 -0.76729,0 -1.34409,0.60325 -1.34409,1.3335 0,0.746126 0.5768,1.333501 1.31234,1.333501 0.49212,0 0.87312,-0.264583 1.05304,-0.624417 v 0.359834 c 0,0.693208 -0.43392,1.148292 -1.05833,1.148292 -0.40217,0 -0.74613,-0.174625 -0.93134,-0.497417 l -0.27516,0.153459 c 0.23283,0.428625 0.6932,0.656167 1.21179,0.656167 z m 0.0317,-1.508126 c -0.56092,0 -1.016,-0.460376 -1.016,-1.026584 0,-0.560917 0.45508,-1.016001 1.016,-1.016001 0.56621,0 1.02129,0.455084 1.02129,1.016001 0,0.566208 -0.45508,1.026584 -1.02129,1.026584 z"
         style="font-size:5.29167px;font-family:Chillax;-inkscape-font-specification:'Chillax, Normal';text-align:center;text-anchor:middle;fill:#c9d1d9"
         id="path6372" />
      <path
         d="m 230.8853,71.559158 c 0.47096,0 0.87313,-0.211667 1.10596,-0.635001 l -0.254,-0.137583 c -0.18521,0.328083 -0.50271,0.460375 -0.85196,0.460375 -0.54504,0 -0.94721,-0.386292 -1.00012,-0.910167 h 2.17487 V 70.14099 c 0,-0.73025 -0.48683,-1.264709 -1.23296,-1.264709 -0.75141,0 -1.26471,0.597959 -1.26471,1.338792 0,0.767293 0.56621,1.344085 1.32292,1.344085 z m -0.98954,-1.48696 c 0.0476,-0.497417 0.39688,-0.883709 0.93133,-0.883709 0.51859,0 0.8943,0.349251 0.90488,0.883709 z"
         style="font-size:5.29167px;font-family:Chillax;-inkscape-font-specification:'Chillax, Normal';text-align:center;text-anchor:middle;fill:#c9d1d9"
         id="path6374" />
      <path
         d="m 234.48365,71.506241 h 0.34395 l 0.30692,-0.984251 1.82563,-0.0053 0.30162,0.989542 h 0.34396 l -0.99483,-3.164419 c -0.09,-0.28575 -0.30163,-0.423333 -0.56621,-0.423333 -0.26459,0 -0.47625,0.137583 -0.56621,0.423333 z m 1.29116,-3.063877 c 0.0423,-0.148167 0.127,-0.216958 0.26988,-0.216958 0.14287,0 0.22754,0.06879 0.27517,0.216958 l 0.54504,1.767418 h -1.63513 z"
         style="font-size:5.29167px;font-family:Chillax;-inkscape-font-specification:'Chillax, Normal';text-align:center;text-anchor:middle;fill:#c9d1d9"
         id="path6376" />
      <path
         d="m 239.37844,72.744492 c 0.80433,0 1.38113,-0.571501 1.38113,-1.449918 v -1.079501 c 0,-0.751417 -0.59267,-1.3335 -1.34938,-1.3335 -0.76729,0 -1.34408,0.60325 -1.34408,1.3335 0,0.746126 0.57679,1.333501 1.31233,1.333501 0.49213,0 0.87313,-0.264583 1.05304,-0.624417 v 0.359834 c 0,0.693208 -0.43391,1.148292 -1.05833,1.148292 -0.40217,0 -0.74613,-0.174625 -0.93134,-0.497417 l -0.27516,0.153459 c 0.23283,0.428625 0.69321,0.656167 1.21179,0.656167 z m 0.0317,-1.508126 c -0.56092,0 -1.016,-0.460376 -1.016,-1.026584 0,-0.560917 0.45508,-1.016001 1.016,-1.016001 0.56621,0 1.02129,0.455084 1.02129,1.016001 0,0.566208 -0.45508,1.026584 -1.02129,1.026584 z"
         style="font-size:5.29167px;font-family:Chillax;-inkscape-font-specification:'Chillax, Normal';text-align:center;text-anchor:middle;fill:#c9d1d9"
         id="path6378" />
      <path
         d="m 242.73336,72.744492 c 0.80434,0 1.38113,-0.571501 1.38113,-1.449918 v -1.079501 c 0,-0.751417 -0.59267,-1.3335 -1.34938,-1.3335 -0.76729,0 -1.34408,0.60325 -1.34408,1.3335 0,0.746126 0.57679,1.333501 1.31233,1.333501 0.49213,0 0.87313,-0.264583 1.05305,-0.624417 v 0.359834 c 0,0.693208 -0.43392,1.148292 -1.05834,1.148292 -0.40217,0 -0.74612,-0.174625 -0.93133,-0.497417 l -0.27517,0.153459 c 0.23283,0.428625 0.69321,0.656167 1.21179,0.656167 z m 0.0317,-1.508126 c -0.56091,0 -1.016,-0.460376 -1.016,-1.026584 0,-0.560917 0.45509,-1.016001 1.016,-1.016001 0.56621,0 1.0213,0.455084 1.0213,1.016001 0,0.566208 -0.45509,1.026584 -1.0213,1.026584 z"
         style="font-size:5.29167px;font-family:Chillax;-inkscape-font-specification:'Chillax, Normal';text-align:center;text-anchor:middle;fill:#c9d1d9"
         id="path6380" />
      <path
         d="m 245.28924,71.506241 v -1.566334 c 0,-0.439209 0.24342,-0.719668 0.635,-0.719668 0.14817,0 0.29104,0.03704 0.41804,0.111126 v -0.333376 c -0.13229,-0.0635 -0.28575,-0.09525 -0.4445,-0.09525 -0.59266,0 -0.93662,0.423334 -0.93662,1.021293 v 1.582209 z"
         style="font-size:5.29167px;font-family:Chillax;-inkscape-font-specification:'Chillax, Normal';text-align:center;text-anchor:middle;fill:#c9d1d9"
         id="path6382" />
      <path
         d="m 247.88216,71.559158 c 0.47096,0 0.87313,-0.211667 1.10596,-0.635001 l -0.254,-0.137583 c -0.18521,0.328083 -0.50271,0.460375 -0.85196,0.460375 -0.54504,0 -0.94721,-0.386292 -1.00012,-0.910167 h 2.17487 V 70.14099 c 0,-0.73025 -0.48683,-1.264709 -1.23296,-1.264709 -0.75141,0 -1.2647,0.597959 -1.2647,1.338792 0,0.767293 0.5662,1.344085 1.32291,1.344085 z m -0.98954,-1.48696 c 0.0476,-0.497417 0.39688,-0.883709 0.93133,-0.883709 0.51859,0 0.8943,0.349251 0.90488,0.883709 z"
         style="font-size:5.29167px;font-family:Chillax;-inkscape-font-specification:'Chillax, Normal';text-align:center;text-anchor:middle;fill:#c9d1d9"
         id="path6384" />
      <path
         d="m 250.87725,72.744492 c 0.80434,0 1.38113,-0.571501 1.38113,-1.449918 v -1.079501 c 0,-0.751417 -0.59267,-1.3335 -1.34938,-1.3335 -0.76729,0 -1.34408,0.60325 -1.34408,1.3335 0,0.746126 0.57679,1.333501 1.31233,1.333501 0.49213,0 0.87313,-0.264583 1.05304,-0.624417 v 0.359834 c 0,0.693208 -0.43391,1.148292 -1.05833,1.148292 -0.40217,0 -0.74613,-0.174625 -0.93133,-0.497417 l -0.27517,0.153459 c 0.23283,0.428625 0.69321,0.656167 1.21179,0.656167 z m 0.0317,-1.508126 c -0.56092,0 -1.016,-0.460376 -1.016,-1.026584 0,-0.560917 0.45508,-1.016001 1.016,-1.016001 0.56621,0 1.02129,0.455084 1.02129,1.016001 0,0.566208 -0.45508,1.026584 -1.02129,1.026584 z"
         style="font-size:5.29167px;font-family:Chillax;-inkscape-font-specification:'Chillax, Normal';text-align:center;text-anchor:middle;fill:#c9d1d9"
         id="path6386" />
      <path
         d="m 254.22159,71.559158 c 0.48684,0 0.88371,-0.264584 1.0795,-0.650876 v 0.597959 h 0.31221 v -1.291168 c 0,-0.751417 -0.59267,-1.3335 -1.34937,-1.3335 -0.7673,0 -1.34409,0.60325 -1.34409,1.3335 0,0.740834 0.56092,1.344085 1.30175,1.344085 z m 0.0423,-0.312209 c -0.56621,0 -1.01601,-0.465667 -1.01601,-1.026584 0,-0.560917 0.4498,-1.026584 1.01601,-1.026584 0.5715,0 1.02129,0.465667 1.02129,1.026584 0,0.560917 -0.44979,1.026584 -1.02129,1.026584 z"
         style="font-size:5.29167px;font-family:Chillax;-inkscape-font-specification:'Chillax, Normal';text-align:center;text-anchor:middle;fill:#c9d1d9"
         id="path6388" />
      <path
         d="m 257.49714,71.564449 c 0.1905,0 0.381,-0.0635 0.51329,-0.164042 v -0.3175 c -0.127,0.105834 -0.30162,0.174625 -0.48683,0.174625 -0.33867,0 -0.56092,-0.22225 -0.56092,-0.60325 v -1.418168 h 1.04775 v -0.296333 h -1.04775 v -0.682625 h -0.32808 v 0.682625 h -0.54504 v 0.296333 h 0.54504 v 1.428751 c 0,0.545042 0.3175,0.899584 0.86254,0.899584 z"
         style="font-size:5.29167px;font-family:Chillax;-inkscape-font-specification:'Chillax, Normal';text-align:center;text-anchor:middle;fill:#c9d1d9"
         id="path6390" />
      <path
         d="m 259.88368,71.559158 c 0.75671,0 1.34408,-0.603251 1.34408,-1.344085 0,-0.73025 -0.57679,-1.3335 -1.34408,-1.3335 -0.75142,0 -1.34938,0.597958 -1.34938,1.3335 0,0.740834 0.58738,1.344085 1.34938,1.344085 z m 0,-0.312209 c -0.5715,0 -1.02129,-0.465667 -1.02129,-1.026584 0,-0.560917 0.44979,-1.026584 1.02129,-1.026584 0.56621,0 1.016,0.465667 1.016,1.026584 0,0.560917 -0.44979,1.026584 -1.016,1.026584 z"
         style="font-size:5.29167px;font-family:Chillax;-inkscape-font-specification:'Chillax, Normal';text-align:center;text-anchor:middle;fill:#c9d1d9"
         id="path6392" />
      <path
         d="m 262.21731,71.506241 v -1.566334 c 0,-0.439209 0.24342,-0.719668 0.635,-0.719668 0.14817,0 0.29104,0.03704 0.41804,0.111126 v -0.333376 c -0.13229,-0.0635 -0.28575,-0.09525 -0.4445,-0.09525 -0.59266,0 -0.93662,0.423334 -0.93662,1.021293 v 1.582209 z"
         style="font-size:5.29167px;font-family:Chillax;-inkscape-font-specification:'Chillax, Normal';text-align:center;text-anchor:middle;fill:#c9d1d9"
         id="path6394" />
      <path
         d="m 265.99557,71.506241 v -1.471084 h 1.89442 v -0.317501 h -1.89442 v -1.42875 h 2.01613 v -0.317501 h -2.01613 c -0.254,0 -0.33866,0.127 -0.33866,0.333376 v 3.20146 z"
         style="font-size:5.29167px;font-family:Chillax;-inkscape-font-specification:'Chillax, Normal';text-align:center;text-anchor:middle;fill:#c9d1d9"
         id="path6396" />
      <path
         d="m 269.7897,71.559158 c 0.75671,0 1.34409,-0.603251 1.34409,-1.344085 0,-0.73025 -0.5768,-1.3335 -1.34409,-1.3335 -0.75142,0 -1.34937,0.597958 -1.34937,1.3335 0,0.740834 0.58737,1.344085 1.34937,1.344085 z m 0,-0.312209 c -0.5715,0 -1.02129,-0.465667 -1.02129,-1.026584 0,-0.560917 0.44979,-1.026584 1.02129,-1.026584 0.56621,0 1.016,0.465667 1.016,1.026584 0,0.560917 -0.44979,1.026584 -1.016,1.026584 z"
         style="font-size:5.29167px;font-family:Chillax;-inkscape-font-specification:'Chillax, Normal';text-align:center;text-anchor:middle;fill:#c9d1d9"
         id="path6398" />
      <path
         d="m 272.12333,71.506241 v -1.566334 c 0,-0.439209 0.24342,-0.719668 0.635,-0.719668 0.14817,0 0.29105,0.03704 0.41805,0.111126 v -0.333376 c -0.1323,-0.0635 -0.28575,-0.09525 -0.4445,-0.09525 -0.59267,0 -0.93663,0.423334 -0.93663,1.021293 v 1.582209 z"
         style="font-size:5.29167px;font-family:Chillax;-inkscape-font-specification:'Chillax, Normal';text-align:center;text-anchor:middle;fill:#c9d1d9"
         id="path6400" />
      <path
         d="m 276.5948,71.548574 c 0.67734,0 1.19592,-0.402167 1.19592,-1.005417 0,-0.709084 -0.59796,-0.867834 -1.13242,-0.984251 -0.46566,-0.100541 -0.89958,-0.195791 -0.89958,-0.661458 0,-0.370417 0.35983,-0.640292 0.77787,-0.640292 0.41805,0 0.73025,0.1905 0.889,0.534458 l 0.28046,-0.148167 c -0.19579,-0.465666 -0.65087,-0.709083 -1.15887,-0.709083 -0.61384,0 -1.12713,0.418042 -1.12713,0.973667 0,0.703792 0.60854,0.862542 1.143,0.978959 0.46567,0.09525 0.889,0.185208 0.889,0.656167 0,0.433917 -0.37041,0.682625 -0.85725,0.682625 -0.45508,0 -0.80433,-0.195791 -0.95779,-0.545042 l -0.28575,0.142875 c 0.19579,0.465667 0.68263,0.724959 1.24354,0.724959 z"
         style="font-size:5.29167px;font-family:Chillax;-inkscape-font-specification:'Chillax, Normal';text-align:center;text-anchor:middle;fill:#c9d1d9"
         id="path6402" />
      <path
         d="m 279.7063,71.559158 c 0.75671,0 1.34409,-0.603251 1.34409,-1.344085 0,-0.73025 -0.5768,-1.3335 -1.34409,-1.3335 -0.75142,0 -1.34937,0.597958 -1.34937,1.3335 0,0.740834 0.58737,1.344085 1.34937,1.344085 z m 0,-0.312209 c -0.5715,0 -1.02129,-0.465667 -1.02129,-1.026584 0,-0.560917 0.44979,-1.026584 1.02129,-1.026584 0.56621,0 1.016,0.465667 1.016,1.026584 0,0.560917 -0.44979,1.026584 -1.016,1.026584 z"
         style="font-size:5.29167px;font-family:Chillax;-inkscape-font-specification:'Chillax, Normal';text-align:center;text-anchor:middle;fill:#c9d1d9"
         id="path6404" />
      <path
         d="m 282.83368,71.559158 c 0.45509,0 0.86784,-0.201084 1.10596,-0.635001 l -0.27516,-0.153458 c -0.18521,0.322792 -0.48684,0.47625 -0.8308,0.47625 -0.52916,0 -0.97896,-0.465667 -0.97896,-1.026584 0,-0.560917 0.4498,-1.026584 0.97896,-1.026584 0.34396,0 0.64559,0.153459 0.8308,0.481542 l 0.27516,-0.15875 c -0.23812,-0.433917 -0.65087,-0.635 -1.10596,-0.635 -0.70908,0 -1.30704,0.597958 -1.30704,1.338792 0,0.740834 0.59796,1.344084 1.30704,1.338793 z"
         style="font-size:5.29167px;font-family:Chillax;-inkscape-font-specification:'Chillax, Normal';text-align:center;text-anchor:middle;fill:#c9d1d9"
         id="path6406" />
      <path
         d="m 284.81805,68.320656 c 0.13229,0 0.23283,-0.105834 0.23283,-0.243417 0,-0.137584 -0.10054,-0.243417 -0.23283,-0.243417 -0.13229,0 -0.23812,0.105833 -0.23812,0.243417 0,0.137583 0.10583,0.243417 0.23812,0.243417 z m -0.16404,0.619125 v 2.56646 h 0.32808 v -2.56646 z"
         style="font-size:5.29167px;font-family:Chillax;-inkscape-font-specification:'Chillax, Normal';text-align:center;text-anchor:middle;fill:#c9d1d9"
         id="path6408" />
      <path
         d="m 287.05113,71.559158 c 0.48684,0 0.88371,-0.264584 1.0795,-0.650876 v 0.597959 h 0.31221 v -1.291168 c 0,-0.751417 -0.59267,-1.3335 -1.34937,-1.3335 -0.7673,0 -1.34409,0.60325 -1.34409,1.3335 0,0.740834 0.56092,1.344085 1.30175,1.344085 z m 0.0423,-0.312209 c -0.56621,0 -1.01601,-0.465667 -1.01601,-1.026584 0,-0.560917 0.4498,-1.026584 1.01601,-1.026584 0.5715,0 1.02129,0.465667 1.02129,1.026584 0,0.560917 -0.44979,1.026584 -1.02129,1.026584 z"
         style="font-size:5.29167px;font-family:Chillax;-inkscape-font-specification:'Chillax, Normal';text-align:center;text-anchor:middle;fill:#c9d1d9"
         id="path6410" />
      <path
         d="m 289.39535,67.759739 v 3.746502 h 0.32808 v -3.746502 z"
         style="font-size:5.29167px;font-family:Chillax;-inkscape-font-specification:'Chillax, Normal';text-align:center;text-anchor:middle;fill:#c9d1d9"
         id="path6412" />
      <path
         d="m 293.02544,71.506241 v -3.148544 c 0,-0.111125 0.037,-0.169333 0.11641,-0.169333 0.0635,0 0.0953,0.04233 0.13759,0.132292 l 1.47108,2.973918 c 0.09,0.185208 0.23813,0.264584 0.42333,0.264584 0.21167,0 0.40746,-0.158751 0.40746,-0.455084 v -3.132669 h -0.32279 v 3.164419 c 0,0.09525 -0.0317,0.142875 -0.0952,0.142875 -0.0741,0 -0.10583,-0.04233 -0.15875,-0.148167 l -1.46579,-2.94746 c -0.09,-0.179917 -0.21167,-0.264583 -0.41275,-0.264583 -0.24871,0 -0.42334,0.164041 -0.42334,0.460375 v 3.127377 z"
         style="font-size:5.29167px;font-family:Chillax;-inkscape-font-specification:'Chillax, Normal';text-align:center;text-anchor:middle;fill:#c9d1d9"
         id="path6414" />
      <path
         d="m 297.67681,71.559158 c 0.47096,0 0.87313,-0.211667 1.10596,-0.635001 l -0.254,-0.137583 c -0.18521,0.328083 -0.50271,0.460375 -0.85196,0.460375 -0.54504,0 -0.94721,-0.386292 -1.00012,-0.910167 h 2.17487 V 70.14099 c 0,-0.73025 -0.48683,-1.264709 -1.23295,-1.264709 -0.75142,0 -1.26471,0.597959 -1.26471,1.338792 0,0.767293 0.56621,1.344085 1.32291,1.344085 z m -0.98954,-1.48696 c 0.0476,-0.497417 0.39688,-0.883709 0.93134,-0.883709 0.51858,0 0.89429,0.349251 0.90487,0.883709 z"
         style="font-size:5.29167px;font-family:Chillax;-inkscape-font-specification:'Chillax, Normal';text-align:center;text-anchor:middle;fill:#c9d1d9"
         id="path6416" />
      <path
         d="m 300.58194,71.564449 c 0.1905,0 0.381,-0.0635 0.51329,-0.164042 v -0.3175 c -0.127,0.105834 -0.30162,0.174625 -0.48683,0.174625 -0.33867,0 -0.56092,-0.22225 -0.56092,-0.60325 v -1.418168 h 1.04775 v -0.296333 h -1.04775 v -0.682625 h -0.32808 v 0.682625 h -0.54504 v 0.296333 h 0.54504 v 1.428751 c 0,0.545042 0.3175,0.899584 0.86254,0.899584 z"
         style="font-size:5.29167px;font-family:Chillax;-inkscape-font-specification:'Chillax, Normal';text-align:center;text-anchor:middle;fill:#c9d1d9"
         id="path6418" />
      <path
         d="m 302.59278,71.564449 c 0.23812,0 0.37041,-0.132292 0.43391,-0.391583 l 0.45509,-1.846793 c 0.0212,-0.100542 0.0794,-0.153459 0.15875,-0.153459 0.0794,0 0.13758,0.05292 0.16404,0.153459 l 0.44979,1.846793 c 0.0635,0.259291 0.19579,0.391583 0.43921,0.391583 0.23283,0 0.37571,-0.132292 0.43921,-0.402167 l 0.508,-2.222501 h -0.30692 l -0.48683,2.159001 c -0.0265,0.111125 -0.0741,0.164042 -0.15346,0.164042 -0.0794,0 -0.13229,-0.05292 -0.15875,-0.148167 l -0.44979,-1.841501 c -0.0635,-0.264583 -0.21167,-0.391583 -0.43921,-0.391583 -0.23283,0 -0.381,0.127 -0.44979,0.396875 l -0.45509,1.836209 c -0.0212,0.08996 -0.0741,0.148167 -0.14816,0.148167 -0.0847,0 -0.13229,-0.05292 -0.15875,-0.164042 l -0.49213,-2.159001 h -0.31221 l 0.5133,2.222501 c 0.0635,0.264584 0.21166,0.402167 0.44979,0.402167 z"
         style="font-size:5.29167px;font-family:Chillax;-inkscape-font-specification:'Chillax, Normal';text-align:center;text-anchor:middle;fill:#c9d1d9"
         id="path6420" />
      <path
         d="m 307.36586,71.559158 c 0.75671,0 1.34409,-0.603251 1.34409,-1.344085 0,-0.73025 -0.5768,-1.3335 -1.34409,-1.3335 -0.75141,0 -1.34937,0.597958 -1.34937,1.3335 0,0.740834 0.58737,1.344085 1.34937,1.344085 z m 0,-0.312209 c -0.5715,0 -1.02129,-0.465667 -1.02129,-1.026584 0,-0.560917 0.44979,-1.026584 1.02129,-1.026584 0.56621,0 1.016,0.465667 1.016,1.026584 0,0.560917 -0.44979,1.026584 -1.016,1.026584 z"
         style="font-size:5.29167px;font-family:Chillax;-inkscape-font-specification:'Chillax, Normal';text-align:center;text-anchor:middle;fill:#c9d1d9"
         id="path6422" />
      <path
         d="m 309.69949,71.506241 v -1.566334 c 0,-0.439209 0.24342,-0.719668 0.635,-0.719668 0.14817,0 0.29105,0.03704 0.41805,0.111126 v -0.333376 c -0.1323,-0.0635 -0.28575,-0.09525 -0.4445,-0.09525 -0.59267,0 -0.93663,0.423334 -0.93663,1.021293 v 1.582209 z"
         style="font-size:5.29167px;font-family:Chillax;-inkscape-font-specification:'Chillax, Normal';text-align:center;text-anchor:middle;fill:#c9d1d9"
         id="path6424" />
      <path
         d="m 311.54629,71.506241 v -1.148293 h 0.37571 c 0.0264,0.07938 0.0688,0.158751 0.13758,0.227542 l 0.91546,0.920751 h 0.42862 l -1.11654,-1.127126 c -0.0529,-0.05292 -0.0847,-0.105833 -0.0847,-0.15875 0,-0.05821 0.0317,-0.105833 0.0847,-0.15875 l 1.12183,-1.121834 h -0.41275 l -0.92604,0.926042 c -0.0635,0.0635 -0.11112,0.132292 -0.13758,0.201084 h -0.38629 v -2.31246 h -0.32809 v 3.751794 z"
         style="font-size:5.29167px;font-family:Chillax;-inkscape-font-specification:'Chillax, Normal';text-align:center;text-anchor:middle;fill:#c9d1d9"
         id="path6426" />
      <path
         d="m 314.86945,71.553866 c 0.508,0 0.94721,-0.291042 0.94721,-0.756709 0,-0.973667 -1.524,-0.545042 -1.524,-1.169459 0,-0.264583 0.27517,-0.418042 0.56092,-0.418042 0.26987,0 0.49212,0.07408 0.62971,0.333375 l 0.26987,-0.153458 c -0.16933,-0.306917 -0.48683,-0.486834 -0.90487,-0.486834 -0.49213,0 -0.88371,0.301625 -0.88371,0.730251 0,0.973667 1.524,0.523875 1.524,1.169459 0,0.296333 -0.28575,0.4445 -0.62971,0.4445 -0.31221,0 -0.55033,-0.105833 -0.70379,-0.402167 l -0.26988,0.148167 c 0.1905,0.375708 0.55034,0.560917 0.98425,0.560917 z"
         style="font-size:5.29167px;font-family:Chillax;-inkscape-font-specification:'Chillax, Normal';text-align:center;text-anchor:middle;fill:#c9d1d9"
         id="path6428" />
    </g>
  </g>
</svg>
